<?xml version="1.0" encoding="utf-8"?>
<!-- Generator: Adobe Illustrator 19.0.1, SVG Export Plug-In . SVG Version: 6.00 Build 0)  -->
<svg version="1.1" id="Calque_1" xmlns="http://www.w3.org/2000/svg" xmlns:xlink="http://www.w3.org/1999/xlink" x="0px" y="0px"
	 viewBox="0 0 134.5 175" style="enable-background:new 0 0 134.5 175;" xml:space="preserve">
<style type="text/css">
	.st0{fill:#1F3C7F;}
	.st1{fill:#1E3D7D;}
</style>
<path class="st0" d="M118.9,116.4H54V16.7L118.9,116.4z M55.8,114.5h59.6L55.8,22.9V114.5z"/>
<path class="st1" d="M54.9,165.9c33,0,61.1-18.8,71.8-45.1H54.9C54.9,120.7,54.9,142.5,54.9,165.9z"/>
<polygon class="st0" points="11.1,101.4 55.5,88.5 55.5,165.9 33.2,165.9 "/>
<polygon class="st0" points="11.2,98.5 11.2,88.6 55.5,75.6 55.5,85.6 "/>
<polygon class="st0" points="11.2,85.5 11.2,75.6 55.5,62.6 55.5,72.7 "/>
<path class="st0" d="M55.5,58.2V6h-2v7.3h-2.1v4.7h1.9l-7.7,16.6l-7.6,16.3h-2.3v4.7h0.1l-0.1,0.3H21v14.3l2-0.6V58.2H55.5z
	 M53.5,22.7v28.1H40.4L48,34.5L53.5,22.7z"/>
</svg>
