<?xml version="1.0" encoding="utf-8"?>
<!-- Generator: Adobe Illustrator 19.0.1, SVG Export Plug-In . SVG Version: 6.00 Build 0)  -->
<svg version="1.1" id="OBJECTS" xmlns="http://www.w3.org/2000/svg" xmlns:xlink="http://www.w3.org/1999/xlink" x="0px" y="0px"
	 viewBox="0 0 181.2 226.1" style="enable-background:new 0 0 181.2 226.1;" xml:space="preserve">
<style type="text/css">
	.st0{fill:#C68F30;}
	.st1{fill:#F4CC6A;}
</style>
<g>
	<path class="st0" d="M66.6,97.6l-39,87.6l27.8-10.7l10.7,27.8l39-87.6L66.6,97.6z"/>
	<polygon class="st1" points="92,138.2 66.3,196 56.8,171.4 32.3,180.8 58,123.1 60.3,124.1 37,176.3 58.3,168.1 66.4,189.4 
		89.7,137.2 	"/>
	<path class="st0" d="M76.1,114.7l39,87.6l10.7-27.8l27.8,10.7l-39-87.6L76.1,114.7z"/>
	<polygon class="st1" points="123.3,123.1 149,180.8 124.4,171.4 115,196 89.2,138.2 91.5,137.2 114.8,189.4 122.9,168.1 
		144.2,176.3 121,124.1 	"/>
	<path class="st1" d="M31.5,86.6c1.2,2.8,1.2,6,0,8.9c-0.4,1-0.9,2.1-1.2,3.1c-0.2,0.6-0.4,1.2-0.7,1.8c-1.5,4.4-0.4,9.3,3,12.4
		c0.9,0.9,1.9,1.7,2.9,2.4c2.7,2.1,4.2,5.4,4.2,8.9c0,0.5,0,0.9,0,1.4c0.2,5.5,4.2,10.1,9.6,11c0.2,0,0.4,0.1,0.6,0.1
		c3.7,0.6,6.9,2.9,8.6,6.2c0,0,0,0.1,0.1,0.1c2.5,4.9,8,7.3,13.3,5.8c0.2-0.1,0.4-0.1,0.6-0.2c3.6-1,7.4-0.2,10.3,2.1
		c0.1,0.1,0.3,0.2,0.4,0.4c4.2,3.3,10.1,3.4,14.3,0.1c0.2-0.1,0.3-0.2,0.5-0.4c2.9-2.3,6.8-3.1,10.3-2c0.2,0.1,0.4,0.1,0.6,0.2
		c5.2,1.5,10.8-0.9,13.3-5.7c0,0,0-0.1,0.1-0.1c1.7-3.3,4.9-5.6,8.6-6.1c0.2,0,0.4-0.1,0.6-0.1c5.4-0.8,9.5-5.4,9.8-10.9
		c0-0.4,0-0.8,0-1.2c0.1-3.5,1.6-6.8,4.4-9c0.9-0.7,1.9-1.5,2.8-2.3c3.5-3.1,4.7-8,3.2-12.4c-0.6-1.9-1.4-3.8-2.1-5.7
		c-1.2-2.9-1.2-6.2,0-9.1c0.8-1.9,1.5-3.7,2.1-5.7c1.5-4.4,0.3-9.3-3.2-12.4c-0.9-0.8-1.8-1.6-2.8-2.3c-2.8-2.1-4.4-5.4-4.4-9
		c0-0.4,0-0.8,0-1.2c-0.2-5.5-4.3-10.1-9.8-10.9c-0.2,0-0.4-0.1-0.6-0.1c-3.7-0.5-6.9-2.8-8.6-6.1c0,0,0-0.1-0.1-0.1
		c-2.5-4.8-8.1-7.2-13.3-5.7c-0.2,0.1-0.4,0.1-0.6,0.2c-3.6,1.1-7.4,0.3-10.3-2c-0.2-0.1-0.3-0.2-0.5-0.4
		c-4.2-3.3-10.1-3.3-14.3,0.1c-0.1,0.1-0.3,0.2-0.4,0.4c-2.9,2.3-6.7,3.1-10.3,2.1c-0.2-0.1-0.4-0.1-0.6-0.2
		c-5.2-1.4-10.8,1-13.3,5.8c0,0,0,0.1-0.1,0.1c-1.7,3.3-4.9,5.7-8.6,6.2c-0.2,0-0.4,0.1-0.6,0.1c-5.4,0.9-9.5,5.5-9.6,11
		c0,0.5,0,0.9,0,1.4c0,3.4-1.5,6.7-4.2,8.9c-1,0.8-1.9,1.6-2.9,2.4c-3.4,3.1-4.5,8-3,12.4c0.2,0.6,0.4,1.2,0.7,1.8
		C30.6,84.5,31,85.6,31.5,86.6z"/>
	<g>
		<g>
			<path class="st0" d="M99.1,50.8c1.5-1,2.3-2.6,2.5-4.2c-1.6-0.4-3.4-0.1-4.8,0.9c-1.5,1-2.3,2.6-2.5,4.2
				C95.9,52.1,97.7,51.8,99.1,50.8z"/>
			<path class="st0" d="M97.4,44c1,1.5,2.6,2.3,4.2,2.5c0.4-1.6,0.1-3.4-0.9-4.8c-1-1.5-2.6-2.3-4.2-2.5
				C96.1,40.8,96.4,42.6,97.4,44z"/>
		</g>
		<g>
			<path class="st0" d="M80.5,140.4c-1-1.5-1.3-3.2-0.9-4.8c1.6,0.2,3.2,1.1,4.2,2.5c1,1.5,1.3,3.2,0.9,4.8
				C83.1,142.7,81.5,141.8,80.5,140.4z"/>
			<path class="st0" d="M84.4,134.6c-1.5,1-3.2,1.3-4.8,0.9c0.2-1.6,1.1-3.2,2.5-4.2s3.2-1.3,4.8-0.9
				C86.7,132,85.9,133.6,84.4,134.6z"/>
		</g>
		<g>
			<path class="st0" d="M106,52.8c1.6-0.8,2.7-2.1,3.2-3.7c-1.5-0.7-3.3-0.7-4.9,0.1c-1.6,0.8-2.7,2.1-3.2,3.7
				C102.6,53.6,104.4,53.6,106,52.8z"/>
			<path class="st0" d="M105.5,45.9c0.8,1.6,2.1,2.7,3.7,3.2c0.7-1.5,0.7-3.3-0.1-4.9c-0.8-1.6-2.1-2.7-3.7-3.2
				C104.8,42.5,104.7,44.3,105.5,45.9z"/>
		</g>
		<g>
			<path class="st0" d="M72.1,137.9c-0.8-1.6-0.7-3.4-0.1-4.9c1.6,0.5,3,1.6,3.7,3.2c0.8,1.6,0.7,3.4,0.1,4.9
				C74.3,140.6,72.9,139.5,72.1,137.9z"/>
			<path class="st0" d="M77,132.9c-1.6,0.8-3.4,0.7-4.9,0.1c0.5-1.6,1.6-3,3.2-3.7s3.4-0.7,4.9-0.1C79.7,130.8,78.6,132.1,77,132.9z
				"/>
		</g>
		<g>
			<path class="st0" d="M112.3,56.1c1.7-0.5,3.1-1.6,3.8-3.1c-1.4-0.9-3.1-1.2-4.8-0.8c-1.7,0.5-3.1,1.6-3.8,3.1
				C108.9,56.2,110.6,56.5,112.3,56.1z"/>
			<path class="st0" d="M113.1,49.2c0.5,1.7,1.6,3.1,3.1,3.8c0.9-1.4,1.2-3.1,0.8-4.8c-0.5-1.7-1.6-3.1-3.1-3.8
				C112.9,45.7,112.6,47.5,113.1,49.2z"/>
		</g>
		<g>
			<path class="st0" d="M64.3,134c-0.5-1.7-0.1-3.5,0.8-4.8c1.5,0.7,2.6,2.1,3.1,3.8c0.5,1.7,0.1,3.5-0.8,4.8
				C65.9,137,64.8,135.7,64.3,134z"/>
			<path class="st0" d="M69.9,129.9c-1.7,0.5-3.5,0.1-4.8-0.8c0.7-1.5,2.1-2.6,3.8-3.1s3.5-0.1,4.8,0.8
				C73,128.3,71.6,129.4,69.9,129.9z"/>
		</g>
		<g>
			<path class="st0" d="M118.1,60.4c1.8-0.2,3.3-1.1,4.3-2.4c-1.2-1.1-2.9-1.8-4.6-1.6c-1.8,0.2-3.3,1.1-4.3,2.4
				C114.6,59.9,116.3,60.5,118.1,60.4z"/>
			<path class="st0" d="M120,53.7c0.2,1.8,1.1,3.3,2.4,4.3c1.1-1.2,1.8-2.9,1.6-4.6c-0.2-1.8-1.1-3.3-2.4-4.3
				C120.5,50.3,119.8,51.9,120,53.7z"/>
		</g>
		<g>
			<path class="st0" d="M57.3,128.7c-0.2-1.8,0.5-3.4,1.6-4.6c1.3,1,2.2,2.5,2.4,4.3c0.2,1.8-0.5,3.4-1.6,4.6
				C58.3,132,57.4,130.5,57.3,128.7z"/>
			<path class="st0" d="M63.5,125.7c-1.8,0.2-3.4-0.5-4.6-1.6c1-1.3,2.5-2.2,4.3-2.4c1.8-0.2,3.4,0.5,4.6,1.6
				C66.8,124.6,65.3,125.5,63.5,125.7z"/>
		</g>
		<g>
			<path class="st0" d="M123,65.6c1.8,0.2,3.4-0.5,4.6-1.6c-1-1.3-2.5-2.2-4.3-2.4c-1.8-0.2-3.4,0.5-4.6,1.6
				C119.7,64.6,121.2,65.5,123,65.6z"/>
			<path class="st0" d="M126,59.4c-0.2,1.8,0.5,3.4,1.6,4.6c1.3-1,2.2-2.5,2.4-4.3c0.2-1.8-0.5-3.4-1.6-4.6
				C127.1,56.1,126.2,57.6,126,59.4z"/>
		</g>
		<g>
			<path class="st0" d="M51.2,122.4c0.2-1.8,1.1-3.3,2.4-4.3c1.1,1.2,1.8,2.9,1.6,4.6c-0.2,1.8-1.1,3.3-2.4,4.3
				C51.7,125.8,51.1,124.1,51.2,122.4z"/>
			<path class="st0" d="M57.9,120.5c-1.8-0.2-3.3-1.1-4.3-2.4c1.2-1.1,2.9-1.8,4.6-1.6c1.8,0.2,3.3,1.1,4.3,2.4
				C61.3,120,59.7,120.6,57.9,120.5z"/>
		</g>
		<g>
			<path class="st0" d="M126.9,71.7c1.7,0.5,3.5,0.1,4.8-0.8c-0.7-1.5-2.1-2.6-3.8-3.1c-1.7-0.5-3.5-0.1-4.8,0.8
				C123.8,70,125.2,71.2,126.9,71.7z"/>
			<path class="st0" d="M131,66c-0.5,1.7-0.1,3.5,0.8,4.8c1.5-0.7,2.6-2.1,3.1-3.8c0.5-1.7,0.1-3.5-0.8-4.8
				C132.6,63,131.4,64.3,131,66z"/>
		</g>
		<g>
			<path class="st0" d="M46.4,115c0.5-1.7,1.6-3.1,3.1-3.8c0.9,1.4,1.2,3.1,0.8,4.8c-0.5,1.7-1.6,3.1-3.1,3.8
				C46.3,118.5,45.9,116.7,46.4,115z"/>
			<path class="st0" d="M53.3,114.3c-1.7-0.5-3.1-1.6-3.8-3.1c1.4-0.9,3.1-1.2,4.8-0.8c1.7,0.5,3.1,1.6,3.8,3.1
				C56.8,114.4,55,114.8,53.3,114.3z"/>
		</g>
		<g>
			<path class="st0" d="M129.7,78.3c1.6,0.8,3.4,0.7,4.9,0.1c-0.5-1.6-1.6-3-3.2-3.7c-1.6-0.8-3.4-0.7-4.9-0.1
				C127,76.1,128.1,77.5,129.7,78.3z"/>
			<path class="st0" d="M134.7,73.4c-0.8,1.6-0.7,3.4-0.1,4.9c1.6-0.5,3-1.6,3.7-3.2c0.8-1.6,0.7-3.4,0.1-4.9
				C136.8,70.7,135.4,71.8,134.7,73.4z"/>
		</g>
		<g>
			<path class="st0" d="M42.9,107c0.8-1.6,2.1-2.7,3.7-3.2c0.7,1.5,0.7,3.3-0.1,4.9c-0.8,1.6-2.1,2.7-3.7,3.2
				C42.2,110.3,42.2,108.6,42.9,107z"/>
			<path class="st0" d="M49.8,107.5c-1.6-0.8-2.7-2.1-3.2-3.7c1.5-0.7,3.3-0.7,4.9,0.1c1.6,0.8,2.7,2.1,3.2,3.7
				C53.2,108.2,51.4,108.2,49.8,107.5z"/>
		</g>
		<g>
			<path class="st0" d="M131.3,85.3c1.5,1,3.2,1.3,4.8,0.9c-0.2-1.6-1.1-3.2-2.5-4.2c-1.5-1-3.2-1.3-4.8-0.9
				C129,82.7,129.9,84.3,131.3,85.3z"/>
			<path class="st0" d="M137.1,81.4c-1,1.5-1.3,3.2-0.9,4.8c1.6-0.2,3.2-1.1,4.2-2.5c1-1.5,1.3-3.2,0.9-4.8
				C139.7,79.1,138.1,79.9,137.1,81.4z"/>
		</g>
		<g>
			<path class="st0" d="M40.9,98.4c1-1.5,2.6-2.3,4.2-2.5c0.4,1.6,0.1,3.4-0.9,4.8c-1,1.5-2.6,2.3-4.2,2.5
				C39.6,101.6,39.8,99.9,40.9,98.4z"/>
			<path class="st0" d="M47.6,100.1c-1.5-1-2.3-2.6-2.5-4.2c1.6-0.4,3.4-0.1,4.8,0.9c1.5,1,2.3,2.6,2.5,4.2
				C50.8,101.4,49,101.1,47.6,100.1z"/>
		</g>
		<g>
			<path class="st0" d="M131.7,92.5c1.3,1.3,2.9,1.8,4.6,1.7c0.1-1.6-0.5-3.3-1.7-4.6c-1.3-1.3-2.9-1.8-4.6-1.7
				C129.9,89.5,130.5,91.2,131.7,92.5z"/>
			<path class="st0" d="M138.1,89.6c-1.3,1.3-1.8,2.9-1.7,4.6c1.6,0.1,3.3-0.5,4.6-1.7c1.3-1.3,1.8-2.9,1.7-4.6
				C141,87.8,139.3,88.4,138.1,89.6z"/>
		</g>
		<g>
			<path class="st0" d="M40.3,89.6c1.3-1.3,2.9-1.8,4.6-1.7c0.1,1.6-0.5,3.3-1.7,4.6c-1.3,1.3-2.9,1.8-4.6,1.7
				C38.5,92.6,39.1,90.9,40.3,89.6z"/>
			<path class="st0" d="M46.7,92.5c-1.3-1.3-1.8-2.9-1.7-4.6c1.6-0.1,3.3,0.5,4.6,1.7c1.3,1.3,1.8,2.9,1.7,4.6
				C49.6,94.3,47.9,93.7,46.7,92.5z"/>
		</g>
		<g>
			<path class="st0" d="M130.9,99.6c1,1.5,2.6,2.3,4.2,2.5c0.4-1.6,0.1-3.4-0.9-4.8c-1-1.5-2.6-2.3-4.2-2.5
				C129.6,96.3,129.9,98.1,130.9,99.6z"/>
			<path class="st0" d="M137.6,97.9c-1.5,1-2.3,2.6-2.5,4.2c1.6,0.4,3.4,0.1,4.8-0.9c1.5-1,2.3-2.6,2.5-4.2
				C140.8,96.6,139.1,96.8,137.6,97.9z"/>
		</g>
		<g>
			<path class="st0" d="M41.3,80.9c1.5-1,3.2-1.3,4.8-0.9c-0.2,1.6-1.1,3.2-2.5,4.2c-1.5,1-3.2,1.3-4.8,0.9
				C39,83.5,39.8,82,41.3,80.9z"/>
			<path class="st0" d="M47.1,84.8c-1-1.5-1.3-3.2-0.9-4.8c1.6,0.2,3.2,1.1,4.2,2.5s1.3,3.2,0.9,4.8C49.6,87.1,48.1,86.3,47.1,84.8z
				"/>
		</g>
		<g>
			<path class="st0" d="M128.8,106.4c0.8,1.6,2.1,2.7,3.7,3.2c0.7-1.5,0.7-3.3-0.1-4.9c-0.8-1.6-2.1-2.7-3.7-3.2
				C128.1,103,128.1,104.8,128.8,106.4z"/>
			<path class="st0" d="M135.7,105.9c-1.6,0.8-2.7,2.1-3.2,3.7c1.5,0.7,3.3,0.7,4.9-0.1c1.6-0.8,2.7-2.1,3.2-3.7
				C139.1,105.2,137.4,105.2,135.7,105.9z"/>
		</g>
		<g>
			<path class="st0" d="M43.8,72.6c1.6-0.8,3.4-0.7,4.9-0.1c-0.5,1.6-1.6,3-3.2,3.7c-1.6,0.8-3.4,0.7-4.9,0.1
				C41.1,74.7,42.2,73.3,43.8,72.6z"/>
			<path class="st0" d="M48.8,77.4c-0.8-1.6-0.7-3.4-0.1-4.9c1.6,0.5,3,1.6,3.7,3.2c0.8,1.6,0.7,3.4,0.1,4.9
				C50.9,80.1,49.5,79,48.8,77.4z"/>
		</g>
		<g>
			<path class="st0" d="M125.6,112.8c0.5,1.7,1.6,3.1,3.1,3.8c0.9-1.4,1.2-3.1,0.8-4.8c-0.5-1.7-1.6-3.1-3.1-3.8
				C125.5,109.3,125.1,111.1,125.6,112.8z"/>
			<path class="st0" d="M132.5,113.5c-1.7,0.5-3.1,1.6-3.8,3.1c1.4,0.9,3.1,1.2,4.8,0.8c1.7-0.5,3.1-1.6,3.8-3.1
				C135.9,113.4,134.2,113,132.5,113.5z"/>
		</g>
		<g>
			<path class="st0" d="M47.7,64.7c1.7-0.5,3.5-0.1,4.8,0.8c-0.7,1.5-2.1,2.6-3.8,3.1c-1.7,0.5-3.5,0.1-4.8-0.8
				C44.6,66.3,46,65.2,47.7,64.7z"/>
			<path class="st0" d="M51.8,70.3c-0.5-1.7-0.1-3.5,0.8-4.8c1.5,0.7,2.6,2.1,3.1,3.8c0.5,1.7,0.1,3.5-0.8,4.8
				C53.4,73.4,52.2,72.1,51.8,70.3z"/>
		</g>
		<g>
			<path class="st0" d="M121.3,118.5c0.2,1.8,1.1,3.3,2.4,4.3c1.1-1.2,1.8-2.9,1.6-4.6c-0.2-1.8-1.1-3.3-2.4-4.3
				C121.8,115.1,121.1,116.7,121.3,118.5z"/>
			<path class="st0" d="M128,120.4c-1.8,0.2-3.3,1.1-4.3,2.4c1.2,1.1,2.9,1.8,4.6,1.6c1.8-0.2,3.3-1.1,4.3-2.4
				C131.4,120.9,129.7,120.3,128,120.4z"/>
		</g>
		<g>
			<path class="st0" d="M52.9,57.7c1.8-0.2,3.4,0.5,4.6,1.6c-1,1.3-2.5,2.2-4.3,2.4c-1.8,0.2-3.4-0.5-4.6-1.6
				C49.6,58.8,51.2,57.8,52.9,57.7z"/>
			<path class="st0" d="M56,63.9c-0.2-1.8,0.5-3.4,1.6-4.6c1.3,1,2.2,2.5,2.4,4.3c0.2,1.8-0.5,3.4-1.6,4.6
				C57,67.2,56.1,65.7,56,63.9z"/>
		</g>
		<g>
			<path class="st0" d="M116,123.4c-0.2,1.8,0.5,3.4,1.6,4.6c1.3-1,2.2-2.5,2.4-4.3c0.2-1.8-0.5-3.4-1.6-4.6
				C117.1,120.1,116.2,121.6,116,123.4z"/>
			<path class="st0" d="M122.3,126.4c-1.8-0.2-3.4,0.5-4.6,1.6c1,1.3,2.5,2.2,4.3,2.4c1.8,0.2,3.4-0.5,4.6-1.6
				C125.6,127.5,124,126.6,122.3,126.4z"/>
		</g>
		<g>
			<path class="st0" d="M59.3,51.7c1.8,0.2,3.3,1.1,4.3,2.4c-1.2,1.1-2.9,1.8-4.6,1.6c-1.8-0.2-3.3-1.1-4.3-2.4
				C55.9,52.1,57.5,51.5,59.3,51.7z"/>
			<path class="st0" d="M61.2,58.3c0.2-1.8,1.1-3.3,2.4-4.3c1.1,1.2,1.8,2.9,1.6,4.6C65,60.5,64.1,62,62.8,63
				C61.7,61.8,61.1,60.1,61.2,58.3z"/>
		</g>
		<g>
			<path class="st0" d="M110,127.3c-0.5,1.7-0.1,3.5,0.8,4.8c1.5-0.7,2.6-2.1,3.1-3.8c0.5-1.7,0.1-3.5-0.8-4.8
				C111.6,124.3,110.5,125.6,110,127.3z"/>
			<path class="st0" d="M115.6,131.4c-1.7-0.5-3.5-0.1-4.8,0.8c0.7,1.5,2.1,2.6,3.8,3.1c1.7,0.5,3.5,0.1,4.8-0.8
				C118.7,133,117.3,131.8,115.6,131.4z"/>
		</g>
		<g>
			<path class="st0" d="M66.6,46.8c1.7,0.5,3.1,1.6,3.8,3.1c-1.4,0.9-3.1,1.2-4.8,0.8c-1.7-0.5-3.1-1.6-3.8-3.1
				C63.2,46.7,64.9,46.4,66.6,46.8z"/>
			<path class="st0" d="M67.4,53.7c0.5-1.7,1.6-3.1,3.1-3.8c0.9,1.4,1.2,3.1,0.8,4.8s-1.6,3.1-3.1,3.8
				C67.2,57.2,66.9,55.5,67.4,53.7z"/>
		</g>
		<g>
			<path class="st0" d="M103.4,130.1c-0.8,1.6-0.7,3.4-0.1,4.9c1.6-0.5,3-1.6,3.7-3.2c0.8-1.6,0.7-3.4,0.1-4.9
				C105.5,127.4,104.1,128.5,103.4,130.1z"/>
			<path class="st0" d="M108.2,135.1c-1.6-0.8-3.4-0.7-4.9-0.1c0.5,1.6,1.6,3,3.2,3.7c1.6,0.8,3.4,0.7,4.9,0.1
				C111,137.2,109.8,135.9,108.2,135.1z"/>
		</g>
		<g>
			<path class="st0" d="M74.7,43.3c1.6,0.8,2.7,2.1,3.2,3.7c-1.5,0.7-3.3,0.7-4.9-0.1c-1.6-0.8-2.7-2.1-3.2-3.7
				C71.3,42.6,73.1,42.6,74.7,43.3z"/>
			<path class="st0" d="M74.2,50.3c0.8-1.6,2.1-2.7,3.7-3.2c0.7,1.5,0.7,3.3-0.1,4.9c-0.8,1.6-2.1,2.7-3.7,3.2
				C73.5,53.6,73.5,51.9,74.2,50.3z"/>
		</g>
		<g>
			<path class="st0" d="M96.4,131.8c-1,1.5-1.3,3.2-0.9,4.8c1.6-0.2,3.2-1.1,4.2-2.5c1-1.5,1.3-3.2,0.9-4.8
				C99,129.4,97.4,130.3,96.4,131.8z"/>
			<path class="st0" d="M100.3,137.5c-1.5-1-3.2-1.3-4.8-0.9c0.2,1.6,1.1,3.2,2.5,4.2c1.5,1,3.2,1.3,4.8,0.9
				C102.6,140.1,101.7,138.5,100.3,137.5z"/>
		</g>
		<g>
			<path class="st0" d="M83.3,41.3c1.5,1,2.3,2.6,2.5,4.2c-1.6,0.4-3.4,0.1-4.8-0.9c-1.5-1-2.3-2.6-2.5-4.2
				C80,40,81.8,40.3,83.3,41.3z"/>
			<path class="st0" d="M81.6,48c1-1.5,2.6-2.3,4.2-2.5c0.4,1.6,0.1,3.4-0.9,4.8c-1,1.5-2.6,2.3-4.2,2.5
				C80.3,51.2,80.5,49.5,81.6,48z"/>
		</g>
		<g>
			<path class="st0" d="M89.2,132.2c-1.3,1.3-1.8,2.9-1.7,4.6c1.6,0.1,3.3-0.5,4.6-1.7c1.3-1.3,1.8-2.9,1.7-4.6
				C92.1,130.3,90.5,130.9,89.2,132.2z"/>
			<path class="st0" d="M92,138.5c-1.3-1.3-2.9-1.8-4.6-1.7c-0.1,1.6,0.5,3.3,1.7,4.6c1.3,1.3,2.9,1.8,4.6,1.7
				C93.9,141.4,93.3,139.8,92,138.5z"/>
		</g>
		<g>
			<path class="st0" d="M92,40.7c1.3,1.3,1.8,2.9,1.7,4.6c-1.6,0.1-3.3-0.5-4.6-1.7c-1.3-1.3-1.8-2.9-1.7-4.6
				C89.1,38.9,90.8,39.5,92,40.7z"/>
			<path class="st0" d="M89.2,47.1c1.3-1.3,2.9-1.8,4.6-1.7c0.1,1.6-0.5,3.3-1.7,4.6c-1.3,1.3-2.9,1.8-4.6,1.7
				C87.4,50,87.9,48.3,89.2,47.1z"/>
		</g>
	</g>
</g>
</svg>
