<?xml version="1.0" encoding="utf-8"?>
<!-- Generator: Adobe Illustrator 19.0.1, SVG Export Plug-In . SVG Version: 6.00 Build 0)  -->
<svg version="1.1" id="Calque_1" xmlns="http://www.w3.org/2000/svg" xmlns:xlink="http://www.w3.org/1999/xlink" x="0px" y="0px"
	 viewBox="0 0 70.6 81.2" style="enable-background:new 0 0 70.6 81.2;" xml:space="preserve">
<style type="text/css">
	.st0{fill:#FFFFFF;}
	.st1{fill:none;stroke:#FFFFFF;stroke-width:3;stroke-miterlimit:10;}
</style>
<path class="st0" d="M47.5,26.2c-1.2-0.3-2.6,0.1-3.7,0.5c-4.9,2-10.3,8.1-10,13.1c0.2,2.8,2.2,4.9,6.1,6.1
	c2.3-1.9,10.1-8.5,10.8-14.4c0.2-1.6-0.2-3-1.3-4.3C48.8,26.7,48.2,26.4,47.5,26.2 M40.6,49.6l-0.8-0.2c-7.8-2.1-9.2-6.8-9.3-9.3
	c-0.4-6.6,6-13.9,12.1-16.3c3.8-1.5,7.2-1,9.3,1.5c1.7,1.9,2.3,4.2,2.1,6.8C53,40.2,41.7,48.8,41.2,49.1L40.6,49.6z"/>
<path class="st0" d="M40,49.4l0.5-3.2C52.2,48,65.7,48.3,67.2,46c0.2-0.3-0.3-1-0.4-1.2C61.1,36,49.7,27.6,49.6,27.6l1.9-2.7
	c0.5,0.4,12,8.8,18,18.1c1.4,2.2,1,3.8,0.4,4.8c-1.1,1.6-3.9,3.7-16.8,3C46.4,50.4,40.2,49.5,40,49.4"/>
<path class="st0" d="M63.8,52.4c-4.2,11.8-6.8,23-5.9,25.4c2.8-1.3,6.1-14,7.7-26.5L63.8,52.4z M57.1,81.1c-0.6-0.1-1.1-0.4-1.5-0.9
	c-3.4-3.7,2.6-21.9,5.4-29.5l0.2-0.6l8.6-5.1l-0.4,3.3c-0.8,7.2-4,31-10.8,32.7C58,81.2,57.5,81.2,57.1,81.1"/>
<line class="st1" x1="24.2" y1="36.4" x2="9.2" y2="35.7"/>
<line class="st1" x1="25.8" y1="24.6" x2="12.6" y2="17.4"/>
<line class="st1" x1="36.1" y1="21.7" x2="31.4" y2="7.4"/>
</svg>
