<?xml version="1.0" encoding="utf-8"?>
<!-- Generator: Adobe Illustrator 19.0.1, SVG Export Plug-In . SVG Version: 6.00 Build 0)  -->
<svg version="1.1" id="Calque_1" xmlns="http://www.w3.org/2000/svg" xmlns:xlink="http://www.w3.org/1999/xlink" x="0px" y="0px"
	 viewBox="0 0 194 238" style="enable-background:new 0 0 194 238;" xml:space="preserve">
<style type="text/css">
	.st0{clip-path:url(#SVGID_2_);fill:#FFFFFF;}
</style>
<g>
	<defs>
		<rect id="SVGID_1_" x="6" y="8" width="182.9" height="217"/>
	</defs>
	<clipPath id="SVGID_2_">
		<use xlink:href="#SVGID_1_"  style="overflow:visible;"/>
	</clipPath>
	<path class="st0" d="M140.9,86.8L99.3,45.3c0.1-1,0.2-2,0.3-2.9c0.1-0.5,0.1-1,0.2-1.5l0-0.1c0.1-0.5,0.2-0.9,0.3-1.4
		c0-0.1,0-0.1,0-0.2c0.1-0.5,0.2-0.9,0.3-1.4c0-0.1,0-0.1,0-0.2c0.1-0.5,0.2-0.9,0.4-1.4c0,0,0-0.1,0-0.1c0.6-1.9,1.3-3.8,2.2-5.6
		c0.1-0.1,0.1-0.2,0.1-0.3c0.2-0.3,0.3-0.6,0.5-1c0.1-0.2,0.2-0.4,0.3-0.6c0.2-0.3,0.3-0.6,0.5-0.8c0.1-0.2,0.3-0.4,0.4-0.7
		c0.2-0.3,0.3-0.5,0.5-0.8c0.2-0.2,0.3-0.5,0.5-0.7c0.2-0.2,0.3-0.5,0.5-0.7c0.2-0.2,0.4-0.5,0.5-0.8c0.2-0.2,0.3-0.4,0.5-0.6
		c0.2-0.3,0.4-0.5,0.6-0.8c0.2-0.2,0.3-0.4,0.5-0.6c0.2-0.3,0.5-0.6,0.8-0.9c0.1-0.2,0.3-0.3,0.4-0.5c0.4-0.4,0.8-0.9,1.2-1.3
		c1.9-1.9,4-3.6,6.2-5.1c1.6-1.1,3.3-2,5.1-2.8c1.8-0.8,3.6-1.5,5.4-2c7.3-2.2,15.1-2.2,22.5,0c1.8,0.5,3.6,1.2,5.4,2
		c1.8,0.8,3.5,1.8,5.1,2.8c2.2,1.4,4.3,3.1,6.2,5.1c15.4,15.4,15.4,40.4,0,55.8c-0.4,0.4-0.9,0.8-1.3,1.2c-0.2,0.1-0.3,0.3-0.5,0.4
		c-0.3,0.3-0.6,0.5-0.9,0.8c-0.2,0.2-0.4,0.3-0.6,0.5c-0.3,0.2-0.5,0.4-0.8,0.6c-0.2,0.2-0.4,0.3-0.6,0.5c-0.2,0.2-0.5,0.4-0.8,0.5
		c-0.2,0.2-0.5,0.3-0.7,0.5c-0.2,0.2-0.5,0.3-0.7,0.5c-0.3,0.2-0.5,0.3-0.8,0.5c-0.2,0.1-0.4,0.3-0.7,0.4c-0.3,0.2-0.6,0.3-0.9,0.5
		c-0.2,0.1-0.4,0.2-0.6,0.3c-0.3,0.2-0.6,0.3-1,0.5c-0.1,0-0.2,0.1-0.3,0.1c-1.8,0.9-3.7,1.6-5.6,2.2c0,0-0.1,0-0.1,0
		c-0.5,0.1-0.9,0.3-1.4,0.4c-0.1,0-0.1,0-0.2,0c-0.5,0.1-0.9,0.2-1.4,0.3c-0.1,0-0.1,0-0.2,0c-0.5,0.1-0.9,0.2-1.4,0.3
		c0,0-0.1,0-0.1,0c-0.5,0.1-1,0.2-1.5,0.2C142.9,86.7,141.9,86.8,140.9,86.8L140.9,86.8z M170.4,148.2c-7-7-16.3-10.8-26.1-10.8
		c-9.9,0-19.1,3.8-26.1,10.8L61,205.3c-4.7,4.7-11,7.3-17.6,7.3c-6.7,0-12.9-2.6-17.6-7.3l-0.4-0.4c-9.7-9.7-9.7-25.6,0-35.3
		l15.2-15.2l4.3,4.3c1.2,1.2,2.7,1.8,4.2,1.8c1.3,0,2.6-0.4,3.7-1.3l80-63.6c-0.1-0.1-0.2-0.2-0.3-0.3L90.8,53.7
		c-0.1-0.1-0.2-0.3-0.3-0.4l-64.1,79.5c-1.9,2.4-1.7,5.8,0.4,8L32,146l-15.2,15.2c-14.4,14.4-14.4,37.8,0,52.3l0.4,0.4
		c7,7,16.3,10.8,26.1,10.8c9.9,0,19.1-3.8,26.1-10.8l57.1-57.1c4.7-4.7,11-7.3,17.6-7.3c6.7,0,12.9,2.6,17.6,7.3l15.9,15.9
		c2.3,2.3,6.1,2.3,8.5,0c2.3-2.3,2.3-6.1,0-8.5L170.4,148.2z M170.4,148.2"/>
</g>
</svg>
