<?xml version="1.0" encoding="utf-8"?>
<!-- Generator: Adobe Illustrator 19.0.1, SVG Export Plug-In . SVG Version: 6.00 Build 0)  -->
<svg version="1.1" id="Calque_1" xmlns="http://www.w3.org/2000/svg" xmlns:xlink="http://www.w3.org/1999/xlink" x="0px" y="0px"
	 viewBox="0 0 155 112" style="enable-background:new 0 0 155 112;" xml:space="preserve">
<style type="text/css">
	.st0{fill:#FFFFFF;}
</style>
<g>
	<path class="st0" d="M126.2,104.7c-1.9,0-3.5-1.6-3.5-3.5c0-22.1-18.2-40.1-40.6-40.1c-22.4,0-40.6,18-40.6,40.1
		c0,1.9-1.6,3.5-3.5,3.5c-1.9,0-3.5-1.6-3.5-3.5c0-25.9,21.4-47,47.6-47c26.2,0,47.6,21.1,47.6,47
		C129.7,103.1,128.1,104.7,126.2,104.7L126.2,104.7z M126.2,104.7"/>
	<path class="st0" d="M82.1,59.8c-15.2,0-27.6-12.2-27.6-27.3S66.8,5.2,82.1,5.2c15.2,0,27.6,12.2,27.6,27.3S97.3,59.8,82.1,59.8
		L82.1,59.8z M82.1,12.1c-11.4,0-20.6,9.1-20.6,20.4c0,11.2,9.2,20.4,20.6,20.4c11.4,0,20.6-9.1,20.6-20.4
		C102.7,21.3,93.4,12.1,82.1,12.1L82.1,12.1z M82.1,12.1"/>
	<path class="st0" d="M33.5,94.7h-27c-1.9,0-3.5-1.6-3.5-3.5c0-22.3,17.1-39.2,39.8-39.2c6.9,0,13.8,1.9,20.3,5.7
		c1.7,1,2.2,3.1,1.3,4.7c-1,1.7-3.1,2.2-4.8,1.3C54.2,60.6,48.5,59,42.8,59c-17.5,0-31,12.1-32.6,28.8h23.3c1.9,0,3.5,1.5,3.5,3.5
		C37,93.1,35.5,94.7,33.5,94.7L33.5,94.7z M33.5,94.7"/>
	<path class="st0" d="M43,58.4c-12.9,0-23.4-10.4-23.4-23.1c0-12.8,10.5-23.2,23.4-23.2c6.3,0,12.1,2.4,16.6,6.8
		c1.4,1.4,1.4,3.5,0,4.9c-1.4,1.4-3.6,1.4-5,0c-3.1-3.1-7.2-4.7-11.6-4.7c-9.1,0-16.4,7.3-16.4,16.2c0,8.9,7.4,16.2,16.4,16.2
		c5.4,0,10.4-2.6,13.5-7c1.1-1.6,3.3-2,4.9-0.9c1.6,1.1,2,3.2,0.9,4.8C57.9,54.7,50.7,58.4,43,58.4L43,58.4z M43,58.4"/>
	<path class="st0" d="M145.8,94.7H127c-1.9,0-3.5-1.6-3.5-3.5c0-1.9,1.6-3.5,3.5-3.5h15.1C140.4,73,128.3,61,112.7,59.3
		c-1.7-0.2-3-1.6-3.1-3.3c-0.1-1.7,1.1-3.2,2.8-3.6c7.8-1.6,13.3-8,13.3-15.7c0-8.8-8.4-16.8-17.7-16.8c-1.9,0-3.5-1.6-3.5-3.5
		c0-1.9,1.6-3.5,3.5-3.5c13.1,0,24.7,11.1,24.7,23.8c0,7.3-3.4,13.8-9,18.1c15.2,5.7,25.6,19.9,25.6,36.4
		C149.3,93.1,147.7,94.7,145.8,94.7L145.8,94.7z M145.8,94.7"/>
</g>
</svg>
