<?xml version="1.0" encoding="utf-8"?>
<!-- Generator: Adobe Illustrator 19.0.1, SVG Export Plug-In . SVG Version: 6.00 Build 0)  -->
<svg version="1.1" id="OBJECTS" xmlns="http://www.w3.org/2000/svg" xmlns:xlink="http://www.w3.org/1999/xlink" x="0px" y="0px"
	 viewBox="0 0 229.8 48.3" style="enable-background:new 0 0 229.8 48.3;" xml:space="preserve">
<style type="text/css">
	.st0{fill:#1F3B7E;}
</style>
<path class="st0" d="M195.7,41.1C195.7,41.1,195.7,41.1,195.7,41.1c-8.9,0-13.1-7.9-16.7-14.9c-3.6-6.9-6.1-11.1-10.4-11.1
	c0,0,0,0,0,0c-4.3,0-6.8,4.2-10.4,11.1c-3.6,7-7.8,14.9-16.7,14.9c0,0,0,0,0,0c-8.9,0-13-7.9-16.7-14.9c-3.6-6.9-6.1-11.1-10.4-11.1
	c0,0,0,0,0,0c-4.3,0-6.8,4.2-10.4,11.1c-3.6,7-7.8,14.9-16.7,14.9c0,0,0,0,0,0c-8.9,0-13-7.9-16.7-14.9c-3.6-6.9-6.1-11.1-10.4-11.1
	c0,0,0,0,0,0c-4.3,0-6.8,4.2-10.4,11.1C46,33,41.9,40.9,33,40.9c0,0,0,0,0,0c-8.9,0-13-7.9-16.7-14.9C12.7,19,10.2,14.8,5.9,14.8
	l0-7.1c8.9,0,13,7.9,16.7,14.9c3.6,6.9,6.1,11.1,10.4,11.1c0,0,0,0,0,0c4.3,0,6.8-4.2,10.4-11.1c3.6-7,7.8-14.9,16.7-14.9
	c0,0,0,0,0,0c8.9,0,13,7.9,16.7,14.9c3.6,6.9,6.1,11.1,10.4,11.1c0,0,0,0,0,0c4.3,0,6.8-4.2,10.4-11.1c3.6-7,7.8-14.9,16.7-14.9
	c0,0,0,0,0,0c8.9,0,13,7.9,16.7,14.9c3.6,6.9,6.1,11.1,10.4,11.1c0,0,0,0,0,0c4.3,0,6.8-4.2,10.4-11.1c3.6-7,7.8-14.9,16.7-14.9
	c0,0,0,0,0,0c8.9,0,13,7.9,16.7,14.9c3.6,6.9,6.1,11.1,10.4,11.1c0,0,0,0,0,0c4.3,0,6.8-4.2,10.4-11.1c3.6-7,7.8-14.9,16.7-14.9
	c0,0,0,0,0,0l0,7.1c0,0,0,0,0,0c-4.3,0-6.8,4.2-10.4,11.1C208.7,33.2,204.6,41.1,195.7,41.1z"/>
</svg>
